PathFileType	4	(X/Y/Z)	C:/Users/beibeiliu/ov580/test_trc\sequence.29_training_dense_right.trc
DataRate	CameraRate	NumFrames	NumMarkers	Units	OrigDataRate	OrigDataStartFrame	OrigNumFrames
120	120	19	19	mm	120	172	200
Frame#	Time	ThumbCMC			ThumbMCP			ThumbIP			ThumbTip			IndexMCP			IndexPIP			IndexTip			MiddleMCP			MiddlePIP			MiddleTip			RingMCP			RingPIP			RingTip			PinkyMCP			PinkyPIP			PinkyTip			BackHand1			BackHand2			BackHand3	
		X0	Y0	Z0	X1	Y1	Z1	X2	Y2	Z2	X3	Y3	Z3	X4	Y4	Z4	X5	Y5	Z5	X6	Y6	Z6	X7	Y7	Z7	X8	Y8	Z8	X9	Y9	Z9	X10	Y10	Z10	X11	Y11	Z11	X12	Y12	Z12	X13	Y13	Z13	X14	Y14	Z14	X15	Y15	Z15	X16	Y16	Z16	X17	Y17	Z17	X18	Y18	Z18	
171	1.425	102.233	68.1304	125.386	77.1476	56.7708	110.673	61.3266	49.9533	85.9446	50.9716	43.0056	68.4762	99.5236	61.9731	56.3636	74.0892	52.5289	46.669	47.1555	39.7031	50.8626	101.958	39.8378	51.8229	73.1984	28.9496	47.7099	44.2584	19.7215	61.3742	108.668	18.31	59.3896	75.6247	14.3333	59.0539	52.5162	12.5785	83.6351	110.326	1.81131	67.009	84.8075	-0.339757	69.2928	60.6232	13.4158	91.0803	147.14	29.9541	98.9358	153.798	29.6131	127.073	142.284	62.2847	116.252	
172	1.43333	115.363	69.9259	123.845	84.7164	70.7603	111.528	63.1223	70.6437	89.7285	51.5291	61.9762	71.2856	104.459	63.2204	57.3141	73.7017	65.1381	49.7258	43.8913	60.8764	56.4376	97.9303	43.0083	54.693	65.5083	45.4086	52.3341	38.4337	43.4362	66.9606	93.7701	20.8865	61.7786	66.0133	22.6213	63.0323	43.7946	37.0661	82.878	94.7491	-0.779072	76.4507	65.3995	9.14303	76.8642	50.0454	31.4766	90.9727	139.014	17.3318	97.7515	148.571	19.0998	126.409	148.351	46.8877	112.588	
173	1.44167	129.839	67.5424	122.429	100.766	77.9129	109.193	80.4029	85.4711	87.6096	63.5178	79.0448	69.2391	111.491	63.0049	53.4948	85.7607	69.9404	47.4196	56.3451	75.2501	55.1981	99.3942	41.3027	54.5984	72.6048	55.3401	50.833	44.3164	67.327	65.3172	91.6307	24.3323	63.5794	65.6571	38.5856	61.9142	43.991	57.4768	78.0941	85.0251	6.10598	78.3919	63.8289	22.3279	73.6305	46.2369	47.0553	81.5243	132.585	10.4792	101.676	144.859	7.95524	129.178	152.947	39.8903	109.478	
174	1.45	144.583	60.1816	119.965	117.784	74.4433	99.5075	103.096	82.2467	82.0364	85.6053	80.8688	60.7423	128.359	50.3681	49.3894	106.731	64.9859	40.6274	77.7814	78.4021	44.9162	112.246	31.6242	52.6827	90.3884	49.0946	45.1699	66.3314	73.3909	50.1957	99.3964	18.827	60.8048	74.0399	39.796	54.3612	55.8105	60.6942	61.7426	88.8487	6.51041	74.7235	70.6773	23.4919	67.5548	57.9	51.2624	68.2458	134.898	-1.48487	101.748	140.654	-2.6641	133.079	158.091	23.3916	112.482	
175	1.45833	161.436	44.3609	116.994	139.733	58.959	92.7436	128.978	66.442	68.9455	115.624	59.9047	52.397	154.549	25.211	50.3669	135.904	41.4411	33.9945	112.042	61.9878	31.9533	138.809	13.0415	50.63	116.81	33.7232	34.7619	94.7717	51.5941	36.0575	119.439	2.16011	57.2912	101.99	21.7495	44.9889	87.2085	42.6342	44.0405	105.413	-7.34695	69.3367	93.8667	10.997	57.8019	79.0104	33.0778	51.9192	144.833	-18.6326	109.48	149.865	-11.2949	138.412	171.949	3.42083	115.912	
176	1.46667	183.25	29.17	120.616	167.435	40.3626	91.0613	160.725	44.9711	62.8829	150.836	35.2348	44.4843	187.202	2.29784	54.195	175.98	18.8132	34.1404	155.654	35.2154	25.39	171.363	-9.13697	51.8994	156.558	8.3729	33.1572	134.283	28.7476	25.6754	156.224	-17.0821	57.0101	142.809	-3.63201	42.0671	123.477	20.9213	31.1807	138.689	-26.8887	70.4363	124.339	-12.9938	54.9383	114.328	9.7659	43.3074	167.261	-32.1098	111.567	167.257	-24.4289	145.583	192.088	-8.46435	124.963	
177	1.475	206.004	28.2834	126.391	193.382	35.7849	93.0333	192.351	30.0867	64.6462	188.872	29.137	41.7372	229.272	-0.0297621	63.6665	212.929	8.8246	40.0208	195.184	21.705	26.7252	213.433	-18.8711	63.337	201.278	-1.55597	36.5488	177.765	16.2552	21.2907	194.436	-30.827	64.445	183.412	-18.5492	42.6921	168.979	2.31833	27.0737	177.115	-39.0528	74.8248	171.643	-26.6689	54.8802	161.174	-3.39246	38.0397	200.997	-35.6927	124.188	192.014	-29.0047	152.072	220.729	-9.18363	137.513	
178	1.48333	213.784	36.8193	131.269	206.395	40.634	92.7381	208.331	42.4655	65.8618	211.598	35.1337	43.9074	254.2	19.1024	77.2163	242.769	22.9492	49.8715	222.183	30.2701	29.4626	246.113	-0.882928	71.609	235.081	7.78415	45.4038	207.938	20.1944	23.8686	234.505	-15.9733	68.5519	220.925	-12.4911	46.5348	203.85	2.20062	28.7941	220.654	-29.9042	79.573	212.263	-21.297	56.4473	197.295	-7.90712	37.2614	230.059	-21.996	127.672	216.023	-20.7261	153.853	235.835	6.03505	142.767	
179	1.49167	209.073	51.688	129.034	202.507	50.3287	95.3032	206.251	51.7436	70.7534	215.182	48.075	47.3317	256.845	50.3325	77.4889	245.726	56.2689	54.006	230.152	48.0181	34.8582	259.866	31.6922	77.03	247.609	31.8314	49.7778	223.281	33.4454	27.5002	255.408	9.8642	73.277	243.041	16.6266	48.3985	221.235	21.124	28.6082	247.739	-3.32852	77.8085	238.787	0.252941	58.3534	220.281	7.2876	35.8109	247.973	1.6028	131.39	229.607	-2.50929	155.953	239.636	32.6808	147.728	
180	1.5	188.529	57.8033	125.301	181.194	56.4859	91.6284	190.01	60.8969	63.5972	197.584	62.2108	40.5306	231.804	84.2244	80.0891	222.51	80.6825	49.512	209.393	71.1238	28.2168	244.006	68.4901	72.5736	233.097	64.811	46.1504	214.666	50.9253	23.0305	249.895	51.2336	73.5186	238.485	43.6886	43.7974	220.552	38.7356	27.2023	253.74	29.3443	79.7546	243.154	27.8341	54.8427	225.247	24.0484	34.0052	251.241	37.6996	127.327	232.805	24.0141	155.57	223.599	58.5649	145.487	
181	1.50833	163.029	52.5324	114.668	158.804	47.1873	81.0522	162.516	50.2593	56.3088	175.972	54.2578	34.6579	187.688	93.4403	67.741	182.91	83.2452	38.3103	179.626	64.8293	20.2354	211.556	82.7559	64.6358	203.987	71.6749	35.8275	189.647	49.7739	14.8215	227.742	67.7446	65.0071	218.419	54.6811	37.6197	199.342	40.7232	22.2851	237.524	51.6608	68.8336	225.958	43.9571	47.8946	214.595	33.7447	29.2429	223.321	63.2895	122.659	216.374	47.3841	146.183	193.784	67.5169	134.21	
182	1.51667	138.38	36.9974	108.612	137.811	24.3896	78.9419	140.378	27.1071	45.465	154.888	29.8716	25.5633	153.261	74.604	49.5745	153.79	59.5758	25.6976	157.102	36.4425	12.4974	178.138	70.4276	51.5047	178.221	52.7997	26.2106	167.074	20.8734	10.7799	196.325	62.1331	54.1709	193.477	40.1719	28.3673	181.685	12.1629	22.0818	213.161	49.572	58.1679	203.444	33.9582	40.3605	192.69	15.7211	27.0554	198.253	67.3438	107.884	196.507	49.3108	137.993	164.884	66.309	123.144	
183	1.525	127.384	22.6055	106.834	125.243	2.61806	77.9661	125.102	-3.80223	50.6076	139.195	-5.12594	27.5612	140.142	47.4466	43.7986	135.493	26.0712	21.4269	138.647	0.0266528	12.0005	164.475	42.5235	41.3939	161.992	17.1341	20.2527	157.755	-16.7724	19.735	181.893	35.1484	41.9261	176.692	7.83617	27.8414	165.291	-18.4231	32.4049	200.528	27.2382	57.165	191.999	5.08054	40.8157	172.426	-18.5118	37.9872	182.125	55.1576	98.6451	179.909	45.8131	131.352	147.564	55.3158	111.112	
184	1.53333	113.796	10.3699	106.338	115.624	-13.3707	83.2134	115.064	-26.6348	58.3288	127.799	-31.3367	38.6699	125.567	20.6214	39.9656	125.753	-4.79893	22.7961	130.558	-31.1032	20.8546	151.902	16.1586	38.4464	151.787	-9.87342	27.0154	144.539	-46.5223	34.2806	168.947	11.5793	45.7381	162.72	-17.8899	35.3197	153.276	-44.909	50.2249	185.441	7.1788	58.6563	181.794	-21.6596	49.036	163.33	-43.3282	57.3493	168.532	39.6368	94.7382	165.215	39.995	124.397	136.964	42.2152	107.318	
185	1.54167	105.406	5.95133	113.473	99.1673	-22.3689	94.7121	101.449	-35.9158	70.7039	109.004	-47.1782	48.55	113.949	6.35075	41.8253	110.41	-16.7005	29.348	113.546	-50.7354	32.9556	134.321	0.146179	39.6583	133.49	-30.871	34.3594	126.465	-57.646	48.8253	155.659	-8.31783	45.9913	151.221	-34.0742	43.7306	133.157	-55.8106	62.7877	171.996	-8.11233	61.1753	161.525	-37.6717	55.9302	144.411	-53.3237	72.256	160.106	29.1547	90.9031	159.902	31.4966	127.243	128.248	36.8888	108.529	
186	1.55	97.7893	11.5855	118.319	85.2572	-16.8894	99.874	82.4961	-32.7411	76.0183	83.3147	-46.4495	57.0534	101.262	8.4733	48.0508	90.3137	-18.8356	36.2007	88.0097	-48.3485	41.8069	121.687	-2.53589	44.8739	110.871	-31.0748	38.3166	99.2882	-60.314	61.4718	141.73	-17.1677	48.6764	128.62	-42.3387	50.709	109.564	-56.0386	73.093	158.951	-25.0789	61.2248	138.037	-44.0246	61.9189	117.069	-52.4301	80.1835	154.952	21.6798	92.8073	159.182	27.0854	123.809	126.749	36.7781	103.285	
187	1.55833	99.1739	26.1517	120.098	79.9573	1.75812	101.316	65.7282	-12.1382	83.2514	59.9932	-25.5637	63.3102	100.788	17.1867	49.0659	75.8802	-4.18124	39.0554	67.0387	-30.0738	44.7186	114.139	0.493659	46.7042	89.4408	-23.8097	43.8709	74.3424	-44.0797	66.8412	125.827	-16.918	49.9228	105.145	-34.7537	52.5157	83.5992	-43.3508	79.5513	139.37	-32.4398	63.0099	113.909	-45.8205	69.0226	90.6144	-41.3703	89.0729	158.687	13.9082	92.1566	160.883	20.6038	119.871	133.674	38.6414	103.071	
188	1.56667	113.498	43.9656	118.346	81.7639	33.1529	103.413	66.849	22.0945	79.6122	55.2978	12.243	63.1329	106.211	34.484	47.1564	79.1954	21.3498	40.6133	58.6886	4.67777	45.1059	112.005	12.4354	44.3037	87.4461	-2.9523	42.5228	56.9908	-12.1904	63.8429	118.388	-6.73106	51.6934	91.1444	-18.6608	52.7343	66.1239	-18.1087	76.0465	125.052	-23.0877	65.2102	95.0067	-26.633	67.0744	72.0487	-15.1311	84.7497	159.227	6.95792	93.7477	165.761	14.2544	118.175	152.623	37.8122	105.47	
189	1.575	134.427	56.2948	112.162	103.241	55.2991	95.6244	83.3135	51.7588	73.5261	72.3767	42.0936	57.3209	128.128	41.8562	47.6597	96.9044	44.9217	37.7771	71.702	41.6257	41.1535	122.161	19.7493	43.8958	89.7787	22.8614	39.6759	61.9751	25.445	51.286	116.351	0.477403	50.6586	89.5396	4.88	50.0398	64.137	11.3978	65.6384	117.644	-19.7672	69.2595	89.9671	-6.31209	64.8361	70.5225	7.99343	74.5576	161.763	-3.50833	93.7148	169.701	3.47251	121.984	167.364	33.0034	103.049	
